HIERARCHY
ROOT Hips
{
  OFFSET 5.80788e-005 67.184 3.4734
  CHANNELS 6 Xposition Yposition Zposition Zrotation Xrotation Yrotation
  JOINT Chest
  {
    OFFSET 0 8.7983 -4.7612
    CHANNELS 3 Zrotation Xrotation Yrotation
    JOINT Chest2
    {
      OFFSET 0 8.0291 0.4195
      CHANNELS 3 Zrotation Xrotation Yrotation
      JOINT Chest3
      {
        OFFSET 0 9.9351 -2.2114
        CHANNELS 3 Zrotation Xrotation Yrotation
        JOINT Neck
        {
          OFFSET 0 22.3885 -0.4656
          CHANNELS 3 Zrotation Xrotation Yrotation
          JOINT Head
          {
            OFFSET -0.0001 12.643 3.4389
            CHANNELS 3 Zrotation Xrotation Yrotation
            End Site
            {
              OFFSET 0.0001 17.6655 0.5274
            }
          }
        }
        JOINT LeftCollar
        {
          OFFSET 2.2603 21.606 7.4023
          CHANNELS 3 Zrotation Xrotation Yrotation
          JOINT LeftShoulder
          {
            OFFSET 13.5163 -1.1332 -5.0146
            CHANNELS 3 Zrotation Xrotation Yrotation
            JOINT LeftElbow
            {
              OFFSET -0.0995 -28.05 -0.2431
              CHANNELS 3 Zrotation Xrotation Yrotation
              JOINT LeftWrist
              {
                OFFSET 0.0679 -23.3996 -0.1402
                CHANNELS 3 Zrotation Xrotation Yrotation
                JOINT LeftFinger1
                {
                  OFFSET 0.7932 -9.069 2.5189
                  CHANNELS 3 Zrotation Xrotation Yrotation
                  JOINT LeftFinger11
                  {
                    OFFSET -0.8272 -3.3923 0.5977
                    CHANNELS 3 Zrotation Xrotation Yrotation
                    JOINT LeftFinger12
                    {
                      OFFSET -0.5649 -2.3158 0.4082
                      CHANNELS 3 Zrotation Xrotation Yrotation
                      End Site
                      {
                        OFFSET -0.4919 -1.6479 0.2673
                      }
                    }
                  }
                }
                JOINT LeftFinger2
                {
                  OFFSET 0.9159 -9.2044 0.2193
                  CHANNELS 3 Zrotation Xrotation Yrotation
                  JOINT LeftFinger21
                  {
                    OFFSET 0.0117 -4.1944 -0.0248
                    CHANNELS 3 Zrotation Xrotation Yrotation
                    JOINT LeftFinger22
                    {
                      OFFSET 0.0071 -2.3249 -0.0142
                      CHANNELS 3 Zrotation Xrotation Yrotation
                      End Site
                      {
                        OFFSET -0.1475 -2.0882 0.0028
                      }
                    }
                  }
                }
                JOINT LeftFinger3
                {
                  OFFSET 0.6113 -8.7231 -2.0637
                  CHANNELS 3 Zrotation Xrotation Yrotation
                  JOINT LeftFinger31
                  {
                    OFFSET -0.1927 -3.8059 -0.2383
                    CHANNELS 3 Zrotation Xrotation Yrotation
                    JOINT LeftFinger32
                    {
                      OFFSET -0.1091 -2.1688 -0.1362
                      CHANNELS 3 Zrotation Xrotation Yrotation
                      End Site
                      {
                        OFFSET -0.2358 -1.9176 -0.0906
                      }
                    }
                  }
                }
                JOINT LeftFinger4
                {
                  OFFSET -0.6151 -8.0947 -3.5641
                  CHANNELS 3 Zrotation Xrotation Yrotation
                  JOINT LeftFinger41
                  {
                    OFFSET -0.4882 -2.341 -0.6462
                    CHANNELS 3 Zrotation Xrotation Yrotation
                    JOINT LeftFinger42
                    {
                      OFFSET -0.3575 -1.7167 -0.4742
                      CHANNELS 3 Zrotation Xrotation Yrotation
                      End Site
                      {
                        OFFSET -0.4187 -1.5237 -0.3496
                      }
                    }
                  }
                }
                JOINT LeftFinger0
                {
                  OFFSET -1.42 -1.8761 1.4223
                  CHANNELS 3 Zrotation Xrotation Yrotation
                  JOINT LeftFinger01
                  {
                    OFFSET -1.1471 -3.4929 2.6334
                    CHANNELS 3 Zrotation Xrotation Yrotation
                    JOINT LeftFinger02
                    {
                      OFFSET -0.823 -2.3 1.6571
                      CHANNELS 3 Zrotation Xrotation Yrotation
                      End Site
                      {
                        OFFSET -0.5822 -1.6914 1.1582
                      }
                    }
                  }
                }
              }
            }
          }
        }
        JOINT RightCollar
        {
          OFFSET -2.2603 21.606 7.4023
          CHANNELS 3 Zrotation Xrotation Yrotation
          JOINT RightShoulder
          {
            OFFSET -13.5187 -1.1334 -5.0155
            CHANNELS 3 Zrotation Xrotation Yrotation
            JOINT RightElbow
            {
              OFFSET 0.0994 -28.0499 -0.2431
              CHANNELS 3 Zrotation Xrotation Yrotation
              JOINT RightWrist
              {
                OFFSET -0.0679 -23.3996 -0.1402
                CHANNELS 3 Zrotation Xrotation Yrotation
                JOINT RightFinger1
                {
                  OFFSET -0.7932 -9.0691 2.5189
                  CHANNELS 3 Zrotation Xrotation Yrotation
                  JOINT RightFinger11
                  {
                    OFFSET 0.8272 -3.3923 0.5977
                    CHANNELS 3 Zrotation Xrotation Yrotation
                    JOINT RightFinger12
                    {
                      OFFSET 0.565 -2.3158 0.4082
                      CHANNELS 3 Zrotation Xrotation Yrotation
                      End Site
                      {
                        OFFSET 0.4919 -1.6479 0.2673
                      }
                    }
                  }
                }
                JOINT RightFinger2
                {
                  OFFSET -0.916 -9.2044 0.2193
                  CHANNELS 3 Zrotation Xrotation Yrotation
                  JOINT RightFinger21
                  {
                    OFFSET -0.0117 -4.1944 -0.0248
                    CHANNELS 3 Zrotation Xrotation Yrotation
                    JOINT RightFinger22
                    {
                      OFFSET -0.0071 -2.3249 -0.0142
                      CHANNELS 3 Zrotation Xrotation Yrotation
                      End Site
                      {
                        OFFSET 0.1475 -2.0882 0.0028
                      }
                    }
                  }
                }
                JOINT RightFinger3
                {
                  OFFSET -0.6113 -8.7231 -2.0637
                  CHANNELS 3 Zrotation Xrotation Yrotation
                  JOINT RightFinger31
                  {
                    OFFSET 0.1927 -3.8059 -0.2383
                    CHANNELS 3 Zrotation Xrotation Yrotation
                    JOINT RightFinger32
                    {
                      OFFSET 0.1091 -2.1688 -0.1362
                      CHANNELS 3 Zrotation Xrotation Yrotation
                      End Site
                      {
                        OFFSET 0.2358 -1.9176 -0.0906
                      }
                    }
                  }
                }
                JOINT RightFinger4
                {
                  OFFSET 0.6151 -8.0947 -3.564
                  CHANNELS 3 Zrotation Xrotation Yrotation
                  JOINT RightFinger41
                  {
                    OFFSET 0.4882 -2.341 -0.6462
                    CHANNELS 3 Zrotation Xrotation Yrotation
                    JOINT RightFinger42
                    {
                      OFFSET 0.3574 -1.7166 -0.4742
                      CHANNELS 3 Zrotation Xrotation Yrotation
                      End Site
                      {
                        OFFSET 0.4187 -1.5237 -0.3496
                      }
                    }
                  }
                }
                JOINT RightFinger0
                {
                  OFFSET 1.4199 -1.8761 1.4221
                  CHANNELS 3 Zrotation Xrotation Yrotation
                  JOINT RightFinger01
                  {
                    OFFSET 1.1472 -3.4929 2.6336
                    CHANNELS 3 Zrotation Xrotation Yrotation
                    JOINT RightFinger02
                    {
                      OFFSET 0.8229 -2.3 1.6571
                      CHANNELS 3 Zrotation Xrotation Yrotation
                      End Site
                      {
                        OFFSET 0.5822 -1.6914 1.1582
                      }
                    }
                  }
                }
              }
            }
          }
        }
      }
    }
  }
  JOINT RightHip
  {
    OFFSET -9.412 3.9771 -0.7758
    CHANNELS 3 Zrotation Xrotation Yrotation
    JOINT RightKnee
    {
      OFFSET -0.7531 -40.938 0
      CHANNELS 3 Zrotation Xrotation Yrotation
      JOINT RightAnkle
      {
        OFFSET 0 -40.1986 0
        CHANNELS 3 Zrotation Xrotation Yrotation
        JOINT RightToe
        {
          OFFSET 0 -4.4182 9.239
          CHANNELS 3 Zrotation Xrotation Yrotation
          End Site
          {
            OFFSET 0 0 6.1981
          }
        }
      }
    }
  }
  JOINT LeftHip
  {
    OFFSET 9.4119 3.9773 -0.7758
    CHANNELS 3 Zrotation Xrotation Yrotation
    JOINT LeftKnee
    {
      OFFSET 0.7532 -40.9383 0
      CHANNELS 3 Zrotation Xrotation Yrotation
      JOINT LeftAnkle
      {
        OFFSET 0 -40.1986 0
        CHANNELS 3 Zrotation Xrotation Yrotation
        JOINT LeftToe
        {
          OFFSET 0 -4.4182 9.239
          CHANNELS 3 Zrotation Xrotation Yrotation
          End Site
          {
            OFFSET 0 0 6.1981
          }
        }
      }
    }
  }
}
MOTION
Frames:	5
Frame Time:	0.0333333
2.42369e-005 3.30894 10.4536 -8.42123e-008 -82.0004 -4.31439e-008 -0.0186415 -3.06722 -0.152808 -0.0455868 -6.13435 -0.307279 -0.0455869 -6.13436 -0.307279 9.55242e-007 17.9983 -4.0167e-006 18.589 8.90915 3.75293 -15.833 14.1706 -8.6764 38.927 -43.9409 35.1103 -13.6038 2.63231 -35.2595 -44.6027 14.6416 25.0726 3.4159e-007 -5.53744e-006 -9.77345e-006 0 3.18055e-015 -0 -7.72648e-006 -8.62738e-006 -1.1458e-006 3.4159e-007 -5.53744e-006 -9.77345e-006 -0.0127871 0.00231915 8.66492e-005 -1.76194e-005 -8.46114e-006 -6.45437e-006 3.4159e-007 -5.53744e-006 -9.77345e-006 -0.016053 0.00299168 0.000849961 1.16861e-005 -2.68085e-006 3.26931e-006 3.4159e-007 -5.53744e-006 -9.77345e-006 -0.012614 0.00312856 0.00283119 -3.53113e-031 6.36111e-015 3.18055e-015 3.4159e-007 -5.53744e-006 -9.77345e-006 0 3.18055e-015 -0 -7.72648e-006 -8.62738e-006 -1.1458e-006 14.9496 14.3918 3.42641 -34.1547 -45.8335 -29.2455 12.9231 2.48568 35.4502 44.97 15.2842 -23.9726 -6.36111e-015 4.77083e-015 4.77083e-015 -1.27222e-014 1.59028e-015 9.54166e-015 1.76556e-031 6.36111e-015 -1.59028e-015 -6.36111e-015 4.77083e-015 4.77083e-015 0.0129472 0.00231902 -8.62777e-005 2.99261e-006 1.25379e-006 2.27928e-006 -6.36111e-015 4.77083e-015 4.77083e-015 0.0163334 0.00303218 -0.000869615 2.64834e-031 4.77083e-015 -3.18055e-015 -6.36111e-015 4.77083e-015 4.77083e-015 0.0145554 0.0036765 -0.00325288 -3.18055e-015 9.54166e-015 -3.18055e-015 -6.36111e-015 4.77083e-015 4.77083e-015 -1.27222e-014 1.59028e-015 9.54166e-015 1.76556e-031 6.36111e-015 -1.59028e-015 -16.9634 -14.9342 -50.8025 -2.0324 50.0104 0.770019 -3.95002 12.9028 0.0165597 -1.16386e-006 -3.68116e-007 -1.21065e-006 16.9597 -14.9363 50.7982 2.0292 50.0112 -0.772315 3.94758 12.9023 -0.0198806 -5.29669e-031 -6.36111e-015 -4.77083e-015 
0.000223653 3.44985 10.4529 -3.26592e-008 -82.0004 -4.24712e-008 -0.0179713 -3.19705 -0.152756 -0.0445993 -6.39402 -0.307237 -0.0445994 -6.39403 -0.307238 5.93401e-007 17.9983 -3.02604e-006 18.4652 8.9057 3.72804 -15.6302 14.8618 -8.1025 38.4843 -44.1695 34.7944 -13.8052 2.6672 -35.2504 -44.6025 14.6422 25.072 6.9604e-006 1.10923e-005 3.16376e-006 4.31296e-006 -8.8933e-006 -7.6495e-006 2.6678e-007 -8.57024e-007 4.6523e-006 6.9604e-006 1.10923e-005 3.16376e-006 -0.0128383 0.00233851 8.048e-005 -7.93269e-006 3.49633e-006 -4.24673e-006 6.9604e-006 1.10923e-005 3.16376e-006 -0.0160401 0.00299802 0.000845771 -3.04046e-006 2.79327e-006 -3.69524e-006 6.9604e-006 1.10923e-005 3.16376e-006 -0.0125938 0.00312533 0.00282067 -1.28036e-006 8.54902e-007 -4.63101e-006 6.9604e-006 1.10923e-005 3.16376e-006 4.31296e-006 -8.8933e-006 -7.6495e-006 2.6678e-007 -8.57024e-007 4.6523e-006 14.7307 15.0809 2.84221 -33.6556 -46.0319 -28.8686 13.131 2.52123 35.4425 44.9699 15.2846 -23.9722 -1.05215e-006 8.71949e-006 -4.48041e-006 4.47733e-006 2.06042e-006 3.42427e-006 -4.47733e-006 -2.06042e-006 -3.42427e-006 -1.05215e-006 8.71949e-006 -4.48041e-006 0.0129507 0.00232626 -8.85987e-005 1.23559e-006 -1.28943e-005 -3.49437e-007 -1.05215e-006 8.71949e-006 -4.48041e-006 0.0163264 0.00302264 -0.00087005 -1.18365e-005 9.25332e-006 -6.03344e-006 -1.05215e-006 8.71949e-006 -4.48041e-006 0.0145742 0.00366474 -0.00324888 2.75447e-006 -1.69367e-006 -2.4303e-006 -1.05215e-006 8.71949e-006 -4.48041e-006 4.47733e-006 2.06042e-006 3.42427e-006 -4.47733e-006 -2.06042e-006 -3.42427e-006 -16.6512 -14.9295 -50.0257 -2.03189 50.0037 0.777905 -3.38904 12.9013 -0.649356 1.79903e-006 5.29313e-006 -5.23202e-006 16.7568 -14.8316 50.3019 2.02863 50.0015 -0.777396 3.58925 12.8821 0.363832 -1.1604e-006 1.02205e-006 -1.21365e-006 
0.000459285 3.62596 10.4522 4.84766e-008 -82.0004 7.01027e-008 -0.0171296 -3.35954 -0.152727 -0.0433599 -6.71901 -0.307257 -0.04336 -6.71902 -0.307258 1.47877e-006 17.9982 -5.88348e-006 18.3412 8.90237 3.70313 -15.3881 15.728 -7.38401 37.9279 -44.453 34.3959 -14.0575 2.71067 -35.2387 -44.6024 14.643 25.0712 2.85605e-006 -9.34531e-007 5.97977e-007 -6.36111e-015 0 -3.18055e-015 4.06435e-006 -1.37818e-006 3.67359e-006 2.85605e-006 -9.34531e-007 5.97977e-007 -0.0128234 0.00232757 8.62563e-005 -7.8745e-006 9.64852e-006 -2.69315e-006 2.85605e-006 -9.34531e-007 5.97977e-007 -0.0160008 0.00298708 0.00085671 -1.70475e-007 1.03302e-006 -3.10292e-006 2.85605e-006 -9.34531e-007 5.97977e-007 -0.0125871 0.00313325 0.00283834 -3.97984e-006 -8.25239e-006 -2.12211e-006 2.85605e-006 -9.34531e-007 5.97977e-007 -6.36111e-015 0 -3.18055e-015 4.06435e-006 -1.37818e-006 3.67359e-006 14.4685 15.9445 2.11094 -33.0271 -46.2777 -28.3928 13.3904 2.56565 35.4326 44.9698 15.285 -23.9718 -4.74407e-006 -3.14483e-006 -3.37745e-006 1.07668e-005 6.12357e-006 9.52372e-006 -7.39748e-008 -3.76085e-007 -1.57182e-006 -4.74407e-006 -3.14483e-006 -3.37745e-006 0.0129496 0.00232073 -7.57863e-005 1.4001e-005 -2.04176e-006 -1.00387e-006 -4.74407e-006 -3.14483e-006 -3.37745e-006 0.0163394 0.00303844 -0.000866193 -2.83577e-006 1.01226e-005 -2.35423e-006 -4.74407e-006 -3.14483e-006 -3.37745e-006 0.0146077 0.00368758 -0.00325014 4.74715e-006 9.56726e-006 3.37702e-006 -4.74407e-006 -3.14483e-006 -3.37745e-006 1.07668e-005 6.12357e-006 9.52372e-006 -7.39748e-008 -3.76085e-007 -1.57182e-006 -16.2617 -14.9169 -49.0543 -2.03159 49.9956 0.787933 -2.68745 12.8917 -1.48224 3.46739e-006 2.27746e-006 3.6539e-006 16.5051 -14.6976 49.6823 2.02808 49.9897 -0.783727 3.14159 12.8539 0.843344 3.73223e-006 2.01972e-006 6.08191e-007 
0.000660509 3.78445 10.4514 -1.40957e-007 -82.0004 -1.59659e-007 -0.0163697 -3.5061 -0.152758 -0.042244 -7.01213 -0.307388 -0.0422441 -7.01215 -0.307389 6.97716e-007 17.9983 -2.6604e-006 18.2173 8.89908 3.67821 -15.1778 16.5116 -6.73772 37.4216 -44.7058 34.0315 -14.2844 2.74982 -35.2278 -44.6022 14.6436 25.0705 2.93141e-006 -2.00261e-006 2.15402e-006 -3.18055e-015 -6.36111e-015 -1.59028e-015 -1.14268e-006 -9.17786e-006 -1.51855e-006 2.93141e-006 -2.00261e-006 2.15402e-006 -0.012804 0.00232365 7.80291e-005 -2.51899e-006 -2.70962e-006 5.60634e-006 2.93141e-006 -2.00261e-006 2.15402e-006 -0.0160603 0.00299104 0.00085644 -9.54166e-015 4.77083e-015 -3.18055e-015 2.93141e-006 -2.00261e-006 2.15402e-006 -0.012595 0.00311777 0.00283331 6.84084e-006 1.44509e-006 2.72265e-006 2.93141e-006 -2.00261e-006 2.15402e-006 -3.18055e-015 -6.36111e-015 -1.59028e-015 -1.14268e-006 -9.17786e-006 -1.51855e-006 14.2402 16.726 1.45334 -32.4563 -46.4954 -27.9591 13.6242 2.60561 35.4233 44.9697 15.2854 -23.9714 -1.74371e-006 4.93635e-007 4.9709e-007 -2.67861e-006 3.16093e-007 3.99882e-006 3.18055e-015 1.59028e-014 4.77083e-015 -1.74371e-006 4.93635e-007 4.9709e-007 0.012923 0.00231237 -8.74753e-005 -9.54166e-015 1.59028e-015 -0 -1.74371e-006 4.93635e-007 4.9709e-007 0.0163427 0.00303717 -0.000868191 -3.18055e-015 -4.77083e-015 -3.18055e-015 -1.74371e-006 4.93635e-007 4.9709e-007 0.0145658 0.00368861 -0.00326433 6.7735e-006 -1.70883e-005 5.95985e-006 -1.74371e-006 4.93635e-007 4.9709e-007 -2.67861e-006 3.16093e-007 3.99882e-006 3.18055e-015 1.59028e-014 4.77083e-015 -15.911 -14.9005 -48.1797 -2.03118 49.9881 0.797023 -2.05585 12.8742 -2.2323 -1.46058e-005 6.33084e-006 5.62571e-006 16.2798 -14.5749 49.1254 2.02753 49.9789 -0.789467 2.73885 12.8253 1.27485 -2.61117e-006 1.35254e-006 6.89307e-007 
0.000851066 3.94293 10.4507 -1.83551e-007 -82.0004 -1.58149e-007 -0.0156103 -3.65283 -0.152834 -0.0411331 -7.30557 -0.307609 -0.0411333 -7.30561 -0.307609 5.33179e-007 17.9983 -2.72615e-006 18.0934 8.89585 3.65328 -14.9758 17.298 -6.09127 36.9105 -44.9565 33.6622 -14.5111 2.7889 -35.2166 -44.602 14.6443 25.0698 -2.92124e-006 1.39849e-006 -2.15852e-006 3.18055e-015 1.59028e-015 -6.36111e-015 -7.85021e-006 1.40703e-006 -1.13056e-006 -2.92124e-006 1.39849e-006 -2.15852e-006 -0.0128312 0.00232914 7.58659e-005 -1.58942e-007 1.39902e-006 -3.10556e-006 -2.92124e-006 1.39849e-006 -2.15852e-006 -0.016069 0.00300047 0.000849822 -8.82781e-032 -1.59028e-015 -3.18055e-015 -2.92124e-006 1.39849e-006 -2.15852e-006 -0.0126216 0.00312659 0.00281945 1.27222e-014 1.59028e-015 3.18055e-015 -2.92124e-006 1.39849e-006 -2.15852e-006 3.18055e-015 1.59028e-015 -6.36111e-015 -7.85021e-006 1.40703e-006 -1.13056e-006 14.0201 17.5106 0.795723 -31.881 -46.7099 -27.5207 13.8582 2.64539 35.4138 44.9696 15.2858 -23.971 3.18055e-015 1.43125e-014 -0 3.18055e-015 1.11319e-014 -7.95139e-015 3.18055e-015 7.95139e-015 -6.36111e-015 3.18055e-015 1.43125e-014 -0 0.0129247 0.0023018 -8.20232e-005 6.36111e-015 0 -0 3.18055e-015 1.43125e-014 -0 0.0163452 0.00301737 -0.000870205 -6.36111e-015 0 3.18055e-015 3.18055e-015 1.43125e-014 -0 0.0146093 0.00367648 -0.00327254 6.36111e-015 -3.18055e-015 -7.95139e-015 3.18055e-015 1.43125e-014 -0 3.18055e-015 1.11319e-014 -7.95139e-015 3.18055e-015 7.95139e-015 -6.36111e-015 -15.5606 -14.8788 -47.3049 -2.03085 49.9806 0.806303 -1.42426 12.8484 -2.98259 -2.25674e-006 5.50845e-006 -2.54658e-006 16.056 -14.4502 48.5693 2.02697 49.9682 -0.79524 2.33638 12.7937 1.70617 -1.61644e-007 -6.29047e-006 7.25896e-006 
